# xmcd
#
# Track frame offsets:
#	150
#	15648
#	31822
#	45936
#	62940
#	78758
#	92645
#	108511
#	128303
#	144692
#	161118
#	178078
#	191475
#
# Disc length: 2769 seconds
#
# Revision: 0
# Processed by: cddbd v1.5.2PL0 Copyright (c) Steve Scherf et al.
# Submitted via: EasyCDDAExtractor 9.1.3.1
#
DISCID=9f0acf0d
DTITLE=Rustie Blue - Stronger Than Steel
DYEAR=2008
DGENRE=Country
TTITLE0=Fall In The First Place
TTITLE1=Born Again Country
TTITLE2=I Break Things
TTITLE3=One Hot Summer Ago
TTITLE4=Stronger Than Steel (duet with Willie Mack)
TTITLE5=Shape Up Heart
TTITLE6=Nothing to Do With Love
TTITLE7=Where I Used to Be
TTITLE8=Cowgirls Do It Better
TTITLE9=Hooked On Honky Tonk
TTITLE10=It Hurts Like Love (duet with Willie Mack)
TTITLE11=It Feels Good
TTITLE12=Chip, Chip# (duet with Bill Anderson)
EXTD=
EXTT0=
EXTT1=
EXTT2=
EXTT3=
EXTT4=
EXTT5=
EXTT6=
EXTT7=
EXTT8=
EXTT9=
EXTT10=
EXTT11=
EXTT12=
PLAYORDER=
